<?xml version="1.0" encoding="UTF-8"?>
<svg version="1.1" xmlns="http://www.w3.org/2000/svg" width="426" height="500">
<path d="M0 0 C2.3822574 0.01073309 4.76376111 0.0000256 7.14599609 -0.01269531 C19.94506939 -0.02467297 32.18343805 0.95317139 44.52490234 4.60449219 C47.60932453 5.46241094 50.71501014 5.83411006 53.88427734 6.26074219 C82.91722269 13.66129688 110.64588832 28.20440804 132.88427734 48.26074219 C133.47080078 48.75574219 134.05732422 49.25074219 134.66162109 49.76074219 C144.26305428 57.88034741 153.79114139 66.83691631 160.88427734 77.26074219 C162.19366487 79.05468477 163.50642709 80.84616699 164.82177734 82.63574219 C165.50111328 83.57804687 166.18044922 84.52035156 166.88037109 85.49121094 C168.12699708 87.21413067 169.3876328 88.92710992 170.66943359 90.62402344 C178.6235172 101.40461512 183.97498126 113.85998778 188.88427734 126.26074219 C189.34157227 127.36687866 189.34157227 127.36687866 189.80810547 128.49536133 C200.09840459 153.60359354 204.42863177 182.18661143 202.88427734 209.26074219 C202.81031738 210.65196289 202.81031738 210.65196289 202.73486328 212.07128906 C202.00978624 224.60890686 200.24763864 236.1749709 196.88427734 248.26074219 C196.50938051 250.06906811 196.15238358 251.88129701 195.82177734 253.69824219 C194.91715724 258.39290859 193.52285583 262.77432861 191.88427734 267.26074219 C191.55814453 268.20304687 191.23201172 269.14535156 190.89599609 270.11621094 C187.68437118 279.00060288 183.40816989 287.13250274 178.88037109 295.40405273 C177.99733593 297.0500043 177.1671698 298.72407839 176.34521484 300.40136719 C172.4131021 308.09737394 167.15050521 315.18684396 161.75463867 321.91894531 C160.53301499 323.44848642 159.32233355 324.98684934 158.12426758 326.53491211 C153.27042786 332.75201184 148.04791161 338.4013562 142.44677734 343.94824219 C141.65207031 344.75068359 140.85736328 345.553125 140.03857422 346.37988281 C134.94853712 351.45335347 129.66776208 355.99760258 123.88427734 360.26074219 C123.01158203 360.91042969 122.13888672 361.56011719 121.23974609 362.22949219 C115.92948789 365.98016105 110.47651079 369.34480726 104.82958984 372.56542969 C102.09974532 374.13671951 99.43132701 375.78135227 96.75927734 377.44824219 C92.83470153 379.81554632 88.89564582 381.62034257 84.59912109 383.20605469 C82.23045697 384.12625514 79.94823874 385.13489136 77.63818359 386.19042969 C73.13841416 388.20364335 68.59019202 389.80346505 63.88427734 391.26074219 C63.0639502 391.5156543 62.24362305 391.77056641 61.3984375 392.03320312 C12.34807752 407.00219888 -42.060012 403.20198962 -87.63916016 379.13183594 C-88.78642578 378.514375 -89.93369141 377.89691406 -91.11572266 377.26074219 C-92.11861328 376.73609375 -93.12150391 376.21144531 -94.15478516 375.67089844 C-108.14154132 368.24412791 -120.03098947 359.10522525 -131.70556641 348.44824219 C-134.69458386 345.73535762 -137.74896409 343.10101506 -140.81494141 340.47558594 C-154.91804527 326.89925335 -165.71276321 310.44055428 -174.97583008 293.33544922 C-175.88840732 291.67447655 -176.85319723 290.04223306 -177.83447266 288.42089844 C-180.11265296 284.57994202 -181.5478288 280.43123427 -183.11572266 276.26074219 C-183.57076172 275.07738281 -184.02580078 273.89402344 -184.49462891 272.67480469 C-187.63049584 264.31283864 -190.15514633 255.85028736 -192.36572266 247.19824219 C-192.61177246 246.2544873 -192.85782227 245.31073242 -193.11132812 244.33837891 C-196.58557023 230.28076576 -197.46848282 216.36686046 -197.43139648 201.95263672 C-197.42823379 199.39474879 -197.45182114 196.83802003 -197.47705078 194.28027344 C-197.52054815 182.98803006 -196.35788376 172.32021653 -194.11572266 161.26074219 C-193.91696533 160.24254395 -193.71820801 159.2243457 -193.51342773 158.17529297 C-193.0056967 155.69167076 -192.45412788 153.22639176 -191.86572266 150.76074219 C-191.65955322 149.89545898 -191.45338379 149.03017578 -191.2409668 148.13867188 C-189.00643048 139.19399525 -185.76153488 130.71513394 -182.11572266 122.26074219 C-181.80618652 121.53346924 -181.49665039 120.80619629 -181.17773438 120.05688477 C-178.85076184 114.68815216 -176.2248522 109.55167674 -173.36572266 104.44824219 C-172.92744141 103.66489502 -172.48916016 102.88154785 -172.03759766 102.07446289 C-168.36583178 95.58149464 -164.4458983 89.33818168 -160.11572266 83.26074219 C-159.48537109 82.33261719 -158.85501953 81.40449219 -158.20556641 80.44824219 C-145.48488181 62.717778 -128.13504412 46.47092081 -110.11572266 34.26074219 C-109.26324951 33.68114746 -109.26324951 33.68114746 -108.39355469 33.08984375 C-100.34193334 27.70620117 -91.74089185 23.40670507 -83.03735352 19.20068359 C-81.04545756 18.22637291 -79.07398136 17.21628192 -77.10009766 16.20605469 C-66.47263761 10.89554082 -54.98746323 7.81059683 -43.49072266 5.01074219 C-42.49113525 4.76469238 -41.49154785 4.51864258 -40.46166992 4.26513672 C-26.96064558 1.09164588 -13.81347078 -0.07376263 0 0 Z " fill="#010101" transform="translate(216.11572265625,49.7392578125)"/>
<path d="M0 0 C0 0.66 0 1.32 0 2 C0.56847656 2.03738281 1.13695312 2.07476562 1.72265625 2.11328125 C7.08435193 2.56978622 11.1669508 3.63489082 16 6 C16 6.66 16 7.32 16 8 C16.804375 8.12375 17.60875 8.2475 18.4375 8.375 C19.283125 8.58125 20.12875 8.7875 21 9 C21.33 9.66 21.66 10.32 22 11 C22.66 11.28875 23.32 11.5775 24 11.875 C26 13 26 13 26.75 15.125 C26.8325 15.74375 26.915 16.3625 27 17 C27.73605469 17.09539062 28.47210938 17.19078125 29.23046875 17.2890625 C32.38888942 18.09982775 33.89560982 19.21755001 36.3125 21.375 C37.00988281 21.98085937 37.70726562 22.58671875 38.42578125 23.2109375 C40 25 40 25 40 28 C40.61875 28.226875 41.2375 28.45375 41.875 28.6875 C44.63071371 30.38955847 44.88516132 32.02709686 46 35 C46.99 35.66 47.98 36.32 49 37 C50.38671875 39.2421875 50.38671875 39.2421875 51.6875 41.875 C52.12449219 42.73867187 52.56148438 43.60234375 53.01171875 44.4921875 C54 47 54 47 54 51 C53.01257813 51.47050781 52.02515625 51.94101563 51.0078125 52.42578125 C49.713334 53.05425994 48.41907447 53.68318981 47.125 54.3125 C46.47402344 54.62123047 45.82304687 54.92996094 45.15234375 55.24804688 C41.80323602 56.88807385 40.10994121 57.83508818 38 61 C35.72839181 61.87728152 33.45029443 62.45032985 31.09375 63.05859375 C28.44541921 64.24935442 28.16500075 65.42071886 27 68 C23.19113653 69.69282821 20.11732983 70.08388448 16 70 C15.45472656 68.948125 15.45472656 68.948125 14.8984375 67.875 C8.49984481 55.79970713 2.13922556 46.92720959 -11 42 C-11 41.34 -11 40.68 -11 40 C-11.61488281 39.93941406 -12.22976563 39.87882812 -12.86328125 39.81640625 C-13.67152344 39.73261719 -14.47976563 39.64882812 -15.3125 39.5625 C-16.11300781 39.48128906 -16.91351563 39.40007812 -17.73828125 39.31640625 C-20 39 -20 39 -23 38 C-25.80426452 37.91481133 -28.5829635 37.8841148 -31.38671875 37.90234375 C-32.20372757 37.9037587 -33.02073639 37.90517365 -33.86250305 37.90663147 C-36.47087268 37.91222706 -39.07915634 37.92477871 -41.6875 37.9375 C-43.45637897 37.94251557 -45.22525928 37.94707838 -46.99414062 37.95117188 C-51.32946019 37.96219504 -55.66471552 37.97945662 -60 38 C-60 38.66 -60 39.32 -60 40 C-60.928125 40.1546875 -60.928125 40.1546875 -61.875 40.3125 C-64.36526484 40.87525373 -64.36526484 40.87525373 -66 44 C-67.98828125 45.02734375 -67.98828125 45.02734375 -70.3125 45.9375 C-77.23826579 48.65371714 -80.93087092 52.85338821 -84.75 59 C-85.34748047 59.92425781 -85.34748047 59.92425781 -85.95703125 60.8671875 C-87.83516468 63.83400166 -89.47369843 66.49132289 -90 70 C-90.66 70 -91.32 70 -92 70 C-91.95875 70.9075 -91.9175 71.815 -91.875 72.75 C-92.00167103 76.04344673 -92.54342539 77.17253164 -94 80 C-94.38749213 82.32495277 -94.72982839 84.65851268 -95 87 C-95.66 87 -96.32 87 -97 87 C-97.33 94.92 -97.66 102.84 -98 111 C-101.3 111 -104.6 111 -108 111 C-108 114.63 -108 118.26 -108 122 C-105.8034375 121.9690625 -105.8034375 121.9690625 -103.5625 121.9375 C-102.04167482 121.91607993 -100.51928038 121.92820036 -99 122 C-97.36007826 123.63992174 -97.67868708 125.62090532 -97.5 127.8828125 C-97.4175 128.88570312 -97.335 129.88859375 -97.25 130.921875 C-97.1675 131.97890625 -97.085 133.0359375 -97 134.125 C-96.2448482 143.59046454 -96.2448482 143.59046454 -95 153 C-94.34 153 -93.68 153 -93 153 C-92.92523438 153.58265625 -92.85046875 154.1653125 -92.7734375 154.765625 C-90.8097496 167.00979661 -84.91266464 176.49731793 -76 185 C-75.34 185.33 -74.68 185.66 -74 186 C-74 186.66 -74 187.32 -74 188 C-73.43539062 188.12632812 -72.87078125 188.25265625 -72.2890625 188.3828125 C-69.07247146 189.25008449 -66.08887149 190.57379841 -63.0234375 191.8671875 C-54.51434291 195.05534956 -47.24782912 196.46928955 -38.125 196.3125 C-36.5481543 196.29993164 -36.5481543 196.29993164 -34.93945312 196.28710938 C-27.800705 196.17646542 -20.95630786 195.70856684 -14 194 C-14 193.34 -14 192.68 -14 192 C-13.09507812 191.70996094 -13.09507812 191.70996094 -12.171875 191.4140625 C-11.37265625 191.15367187 -10.5734375 190.89328125 -9.75 190.625 C-8.96109375 190.36976563 -8.1721875 190.11453125 -7.359375 189.8515625 C-5.09724629 189.03509883 -3.04993486 188.26080065 -1 187 C-0.67 186.01 -0.34 185.02 0 184 C1.88573692 182.25666426 3.87789099 180.69847239 5.89453125 179.109375 C11.3038449 173.69002552 13.39215205 166.5648302 15.62304688 159.43359375 C17.38334492 154.32057544 17.38334492 154.32057544 20.26171875 152.82421875 C23.93953634 153.0603126 26.70027779 154.4549782 29.875 156.1875 C30.49705322 156.51266602 31.11910645 156.83783203 31.76000977 157.17285156 C34.85534099 158.80193052 37.91304637 160.49319892 40.9375 162.25 C44.20550076 164.117429 47.52960772 165.54874505 51 167 C53.0072458 167.98537521 55.00980253 168.98063057 57 170 C56.67 172.64 56.34 175.28 56 178 C55.01 178.33 54.02 178.66 53 179 C52.896875 179.99 52.79375 180.98 52.6875 182 C52.09191294 186.28297163 50.61404973 189.99996371 49 194 C48.34 194 47.68 194 47 194 C46.67 195.65 46.34 197.3 46 199 C44.68 199.33 43.36 199.66 42 200 C42 200.99 42 201.98 42 203 C41.34 203 40.68 203 40 203 C39.7525 203.56203125 39.505 204.1240625 39.25 204.703125 C37.78725133 207.39092569 36.03195127 209.46405482 34 211.75 C33.29875 212.54921875 32.5975 213.3484375 31.875 214.171875 C30 216 30 216 28 216 C28 216.66 28 217.32 28 218 C26.68 218.33 25.36 218.66 24 219 C24 219.66 24 220.32 24 221 C18.21845835 225.88219073 10.73118196 230 3 230 C3 230.99 3 231.98 3 233 C-10.09516783 237.60648603 -23.71474125 237.26533465 -37.4375 237.3125 C-38.27339661 237.31644775 -39.10929321 237.32039551 -39.97052002 237.32446289 C-53.02546586 237.35323826 -65.33457239 236.40174555 -78 233 C-78 232.34 -78 231.68 -78 231 C-78.639375 230.9175 -79.27875 230.835 -79.9375 230.75 C-84.20541517 229.70479628 -88.03107667 227.85908174 -92 226 C-92 225.34 -92 224.68 -92 224 C-93.98 223.67 -95.96 223.34 -98 223 C-101.96 220.03 -105.92 217.06 -110 214 C-110.33 247 -110.66 280 -111 314 C-118.07730674 313.29226933 -124.16751455 312.4109707 -130.875 310.4375 C-131.77919678 310.17283936 -132.68339355 309.90817871 -133.61499023 309.63549805 C-150.84784992 304.44603183 -166.50566636 297.11115507 -182 288 C-183.093125 287.35933594 -184.18625 286.71867187 -185.3125 286.05859375 C-194.9207471 280.17627202 -203.29190975 272.76215924 -211.58984375 265.1875 C-214.57886121 262.47461544 -217.63324143 259.84027287 -220.69921875 257.21484375 C-234.80232262 243.63851117 -245.59704055 227.17981209 -254.86010742 210.07470703 C-255.77268466 208.41373436 -256.73747457 206.78149087 -257.71875 205.16015625 C-259.9969303 201.31919983 -261.43210614 197.17049208 -263 193 C-263.45503906 191.81664062 -263.91007812 190.63328125 -264.37890625 189.4140625 C-267.51477319 181.05209645 -270.03942367 172.58954517 -272.25 163.9375 C-272.4960498 162.99374512 -272.74209961 162.04999023 -272.99560547 161.07763672 C-278.21673265 139.95170942 -277 119.99368809 -277 98 C-233.77 98 -190.54 98 -146 98 C-145.67 94.37 -145.34 90.74 -145 87 C-144.44528554 84.27640196 -143.82594643 81.56467815 -143.125 78.875 C-142.94791504 78.19123291 -142.77083008 77.50746582 -142.58837891 76.80297852 C-141.436441 72.42738028 -140.15116836 68.1222702 -138.63671875 63.859375 C-137.89387285 61.7803409 -137.89387285 61.7803409 -137.1875 58.6875 C-135.40660758 53.15736037 -132.67110278 48.1462279 -130 43 C-129.33069264 41.66799029 -128.66283985 40.33523989 -128 39 C-127.34 39 -126.68 39 -126 39 C-125.7525 38.278125 -125.505 37.55625 -125.25 36.8125 C-123.87730408 33.72393418 -122.27646704 31.48988582 -120 29 C-119.34 29 -118.68 29 -118 29 C-117.731875 28.360625 -117.46375 27.72125 -117.1875 27.0625 C-116 25 -116 25 -113 24 C-112.67 23.01 -112.34 22.02 -112 21 C-111.34 21 -110.68 21 -110 21 C-110 20.34 -110 19.68 -110 19 C-108.6696875 18.2575 -108.6696875 18.2575 -107.3125 17.5 C-102.3968674 14.7141384 -97.65441559 11.64490668 -92.890625 8.609375 C-90 7 -90 7 -87 7 C-87 6.34 -87 5.68 -87 5 C-86.43152344 4.89042969 -85.86304688 4.78085938 -85.27734375 4.66796875 C-80.91438033 3.77206808 -77.12957022 2.64762809 -73.0625 0.79296875 C-50.33853766 -7.94370616 -23.23326764 -4.63499317 0 0 Z " fill="#FBFBFB" transform="translate(296,133)"/>
<path d="M0 0 C36.63 0 73.26 0 111 0 C111 51.15 111 102.3 111 155 C104.31629983 152.77209994 98.98283065 149.6446276 93 146 C92.06414062 145.43925781 91.12828125 144.87851562 90.1640625 144.30078125 C80.3851703 138.29054521 71.86829428 130.90839938 63.41015625 123.1875 C60.42113879 120.47461544 57.36675857 117.84027287 54.30078125 115.21484375 C40.19767738 101.63851117 29.40295945 85.17981209 20.13989258 68.07470703 C19.22731534 66.41373436 18.26252543 64.78149087 17.28125 63.16015625 C15.0030697 59.31919983 13.56789386 55.17049208 12 51 C11.54496094 49.81664062 11.08992188 48.63328125 10.62109375 47.4140625 C7.43988995 38.93050181 4.88427356 30.3359447 2.625 21.5625 C2.36219238 20.56847168 2.09938477 19.57444336 1.82861328 18.55029297 C1.58868652 17.58623535 1.34875977 16.62217773 1.1015625 15.62890625 C0.88838379 14.78400635 0.67520508 13.93910645 0.45556641 13.06860352 C-0.18453458 8.75701223 0 4.35884718 0 0 Z " fill="#010101" transform="translate(21,275)"/>
<path d="M0 0 C8.39471855 5.18415566 8.39471855 5.18415566 10 10 C11.2375 10.86625 11.2375 10.86625 12.5 11.75 C15.74557267 14.6710154 15.75448527 16.74441143 16 21 C14.515 21.495 14.515 21.495 13 22 C12.505 23.485 12.505 23.485 12 25 C11.34 25 10.68 25 10 25 C10 25.66 10 26.32 10 27 C8.625 28.625 8.625 28.625 7 30 C6.34 30 5.68 30 5 30 C4.505 31.485 4.505 31.485 4 33 C3.34 33 2.68 33 2 33 C2 33.66 2 34.32 2 35 C1.34 35 0.68 35 0 35 C0 35.66 0 36.32 0 37 C-1.98 37 -3.96 37 -6 37 C-6.33 36.34 -6.66 35.68 -7 35 C-8.485 34.505 -8.485 34.505 -10 34 C-12 31 -12 31 -12 28 C-12.598125 27.71125 -13.19625 27.4225 -13.8125 27.125 C-16 26 -16 26 -19 24 C-21.44368974 23.67216171 -21.44368974 23.67216171 -24.20581055 23.68115234 C-25.26668381 23.66128265 -26.32755707 23.64141296 -27.420578 23.62094116 C-29.13631767 23.60361435 -29.13631767 23.60361435 -30.88671875 23.5859375 C-32.05886429 23.56657135 -33.23100983 23.5472052 -34.43867493 23.5272522 C-38.1882089 23.46739803 -41.93777348 23.42104717 -45.6875 23.375 C-48.22722705 23.33682564 -50.76694107 23.29777424 -53.30664062 23.2578125 C-59.53765486 23.1616915 -65.7687297 23.07768168 -72 23 C-72 19.7 -72 16.4 -72 13 C-69.56197998 12.97812622 -69.56197998 12.97812622 -67.07470703 12.95581055 C-61.06243537 12.89797586 -55.0505441 12.8207424 -49.03857422 12.73754883 C-46.43316812 12.70422954 -43.82768862 12.67621974 -41.22216797 12.65356445 C-37.48373027 12.62014746 -33.74596959 12.56783754 -30.0078125 12.51171875 C-28.25152023 12.50213387 -28.25152023 12.50213387 -26.45974731 12.49235535 C-24.838293 12.46266411 -24.838293 12.46266411 -23.18408203 12.43237305 C-22.22921906 12.42126999 -21.27435608 12.41016693 -20.29055786 12.39872742 C-19.15673172 12.20135735 -19.15673172 12.20135735 -18 12 C-17.34 11.01 -16.68 10.02 -16 9 C-14.7934375 8.319375 -14.7934375 8.319375 -13.5625 7.625 C-10.62649389 5.76314247 -9.6581954 4.00054406 -8 1 C-4.96367283 -0.51816358 -3.41052601 -0.49607651 0 0 Z " fill="#F5F5F5" transform="translate(373,231)"/>
<path d="M0 0 C0.99 0 1.98 0 3 0 C2.67 33.99 2.34 67.98 2 103 C1.34 103 0.68 103 0 103 C0 69.01 0 35.02 0 0 Z " fill="#9B9C9B" transform="translate(183,344)"/>
<path d="M0 0 C17.82 0 35.64 0 54 0 C54 0.66 54 1.32 54 2 C36.84 2 19.68 2 2 2 C2 4.31 2 6.62 2 9 C18.83 9 35.66 9 53 9 C53 9.33 53 9.66 53 10 C35.51 10 18.02 10 0 10 C0 6.7 0 3.4 0 0 Z " fill="#A1A1A1" transform="translate(301,244)"/>
<path d="M0 0 C1.50046875 0.00386719 1.50046875 0.00386719 3.03125 0.0078125 C4.0315625 0.00523437 5.031875 0.00265625 6.0625 0 C8.53125 0.1328125 8.53125 0.1328125 9.53125 1.1328125 C9.67480117 5.13501903 9.57341403 9.12722933 9.53125 13.1328125 C5.24125 13.1328125 0.95125 13.1328125 -3.46875 13.1328125 C-3.56640625 3.85546875 -3.56640625 3.85546875 -3.46875 1.1328125 C-2.46875 0.1328125 -2.46875 0.1328125 0 0 Z " fill="#000000" transform="translate(164.46875,242.8671875)"/>
<path d="M0 0 C4.62 0 9.24 0 14 0 C14.09765625 7.71484375 14.09765625 7.71484375 14 10 C13 11 13 11 10.05859375 11.09765625 C8.26615234 11.08025391 8.26615234 11.08025391 6.4375 11.0625 C4.64119141 11.04896484 4.64119141 11.04896484 2.80859375 11.03515625 C1.88175781 11.02355469 0.95492187 11.01195312 0 11 C0 7.37 0 3.74 0 0 Z " fill="#F4F4F4" transform="translate(225,244)"/>
<path d="M0 0 C1.53445094 3.06890187 0.54984289 5.70094266 0 9 C-0.66 9 -1.32 9 -2 9 C-2.33 16.92 -2.66 24.84 -3 33 C-6.3 33 -9.6 33 -13 33 C-13 36.63 -13 40.26 -13 44 C-10.8034375 43.9690625 -10.8034375 43.9690625 -8.5625 43.9375 C-7.04167482 43.91607993 -5.51928038 43.92820036 -4 44 C-2.41596476 45.58403524 -2.78025065 47.2771638 -2.68359375 49.47265625 C-2.62075195 50.82133789 -2.62075195 50.82133789 -2.55664062 52.19726562 C-2.51732422 53.14279297 -2.47800781 54.08832031 -2.4375 55.0625 C-2.39431641 56.01189453 -2.35113281 56.96128906 -2.30664062 57.93945312 C-2.20020724 60.29281353 -2.09818992 62.64628354 -2 65 C-4.48044315 61.27933528 -4.44381173 58.13459526 -4.625 53.8125 C-4.66367188 53.06291016 -4.70234375 52.31332031 -4.7421875 51.54101562 C-4.83628216 49.69440801 -4.91922319 47.8472381 -5 46 C-8.3 46 -11.6 46 -15 46 C-15 41.05 -15 36.1 -15 31 C-11.37 31 -7.74 31 -4 31 C-4.05220703 29.13408203 -4.05220703 29.13408203 -4.10546875 27.23046875 C-4.4511048 9.40424484 -4.4511048 9.40424484 -1 1 C-0.67 0.67 -0.34 0.34 0 0 Z " fill="#868686" transform="translate(201,211)"/>
<path d="M0 0 C3.3 0 6.6 0 10 0 C10 4.29 10 8.58 10 13 C6.7 13 3.4 13 0 13 C0 8.71 0 4.42 0 0 Z " fill="#1A1A1A" transform="translate(138,243)"/>
<path d="M0 0 C1.640625 1.42578125 1.640625 1.42578125 3.25 3.3125 C4.06210937 4.23482422 4.06210937 4.23482422 4.890625 5.17578125 C5.25671875 5.77777344 5.6228125 6.37976563 6 7 C5.00102287 9.99693138 4.34869747 11.02709413 2 13 C1.34 13 0.68 13 0 13 C0 13.66 0 14.32 0 15 C-2.53910197 14.61479436 -3.72751123 14.29902057 -5.484375 12.37109375 C-5.90203125 11.73300781 -6.3196875 11.09492188 -6.75 10.4375 C-7.17796875 9.79683594 -7.6059375 9.15617188 -8.046875 8.49609375 C-8.36140625 8.00238281 -8.6759375 7.50867188 -9 7 C-8.07347299 5.82460004 -7.13336613 4.65989423 -6.1875 3.5 C-5.66542969 2.8503125 -5.14335937 2.200625 -4.60546875 1.53125 C-3 0 -3 0 0 0 Z " fill="#222222" transform="translate(372,242)"/>
<path d="M0 0 C4.29 0 8.58 0 13 0 C13 2.97 13 5.94 13 9 C11.02090602 9.02686553 9.04171029 9.04633375 7.0625 9.0625 C5.96035156 9.07410156 4.85820312 9.08570313 3.72265625 9.09765625 C1 9 1 9 0 8 C-0.14115161 5.32941149 -0.04247107 2.67567762 0 0 Z " fill="#E1E1E1" transform="translate(251,245)"/>
<path d="M0 0 C3.96 0 7.92 0 12 0 C12 2.97 12 5.94 12 9 C10.18757948 9.02687279 8.37504767 9.04633715 6.5625 9.0625 C5.55316406 9.07410156 4.54382813 9.08570313 3.50390625 9.09765625 C1 9 1 9 0 8 C-0.14115161 5.32941149 -0.04247107 2.67567762 0 0 Z " fill="#E9E9E9" transform="translate(200,245)"/>
<path d="M0 0 C1.81242052 -0.02687279 3.62495233 -0.04633715 5.4375 -0.0625 C6.44683594 -0.07410156 7.45617187 -0.08570313 8.49609375 -0.09765625 C11 0 11 0 12 1 C12.14115161 3.67058851 12.04247107 6.32432238 12 9 C10.18757948 9.02687279 8.37504767 9.04633715 6.5625 9.0625 C5.55316406 9.07410156 4.54382813 9.08570313 3.50390625 9.09765625 C1 9 1 9 0 8 C-0.14115161 5.32941149 -0.04247107 2.67567762 0 0 Z " fill="#E9E9E9" transform="translate(277,245)"/>
<path d="M0 0 C1.50046875 0.00386719 1.50046875 0.00386719 3.03125 0.0078125 C4.0315625 0.00523437 5.031875 0.00265625 6.0625 0 C8.53125 0.1328125 8.53125 0.1328125 9.53125 1.1328125 C9.67480117 5.13501903 9.57341403 9.12722933 9.53125 13.1328125 C5.24125 13.1328125 0.95125 13.1328125 -3.46875 13.1328125 C-3.56640625 3.85546875 -3.56640625 3.85546875 -3.46875 1.1328125 C-2.46875 0.1328125 -2.46875 0.1328125 0 0 Z M-1.46875 1.1328125 C-1.46875 4.4328125 -1.46875 7.7328125 -1.46875 11.1328125 C1.83125 11.1328125 5.13125 11.1328125 8.53125 11.1328125 C8.53125 7.8328125 8.53125 4.5328125 8.53125 1.1328125 C5.23125 1.1328125 1.93125 1.1328125 -1.46875 1.1328125 Z " fill="#4C4C4C" transform="translate(164.46875,242.8671875)"/>
<path d="M0 0 C4.62 0 9.24 0 14 0 C14.09765625 7.71484375 14.09765625 7.71484375 14 10 C13 11 13 11 10.05859375 11.09765625 C8.26615234 11.08025391 8.26615234 11.08025391 6.4375 11.0625 C4.64119141 11.04896484 4.64119141 11.04896484 2.80859375 11.03515625 C1.88175781 11.02355469 0.95492187 11.01195312 0 11 C0 7.37 0 3.74 0 0 Z M1 1 C1 3.64 1 6.28 1 9 C4.63 9 8.26 9 12 9 C12 6.36 12 3.72 12 1 C8.37 1 4.74 1 1 1 Z " fill="#7F7F7F" transform="translate(225,244)"/>
<path d="M0 0 C2.24058738 -0.00219713 4.48069028 -0.02041085 6.72119141 -0.03930664 C8.14697098 -0.04223903 9.57275288 -0.04422486 10.99853516 -0.04516602 C12.93817139 -0.05132935 12.93817139 -0.05132935 14.91699219 -0.05761719 C18.11572266 0.18530273 18.11572266 0.18530273 21.11572266 2.18530273 C20.24359131 2.18006592 19.37145996 2.1748291 18.47290039 2.16943359 C15.20954719 2.15230028 11.94624243 2.13980829 8.68286133 2.13037109 C7.27562705 2.12537003 5.86839789 2.11856703 4.46118164 2.10986328 C2.42804696 2.09761114 0.39498152 2.09203204 -1.63818359 2.08764648 C-2.85836182 2.08240967 -4.07854004 2.07717285 -5.33569336 2.07177734 C-11.92155469 2.24261094 -11.92155469 2.24261094 -18.07177734 4.31030273 C-19.88427734 5.18530273 -19.88427734 5.18530273 -22.13427734 4.81030273 C-22.71177734 4.60405273 -23.28927734 4.39780273 -23.88427734 4.18530273 C-22.23427734 3.85530273 -20.58427734 3.52530273 -18.88427734 3.18530273 C-18.88427734 2.52530273 -18.88427734 1.86530273 -18.88427734 1.18530273 C-12.67215261 -0.30635117 -6.3474116 -0.00069921 0 0 Z " fill="#404040" transform="translate(254.88427734375,169.814697265625)"/>
<path d="M0 0 C3.84579247 1.50079706 5.47823724 3.65311409 7.8125 7 C8.50214844 7.98484375 9.19179688 8.9696875 9.90234375 9.984375 C10.94068359 11.47710937 10.94068359 11.47710937 12 13 C12.99193359 14.33804688 12.99193359 14.33804688 14.00390625 15.703125 C17.45587522 20.40183851 19.87519169 24.25097976 21 30 C20.01 29.34 19.02 28.68 18 28 C18 27.01 18 26.02 18 25 C17.34 25 16.68 25 16 25 C14.99491199 23.21118264 13.99607264 21.41885304 13 19.625 C12.1646875 18.12839844 12.1646875 18.12839844 11.3125 16.6015625 C10 14 10 14 10 12 C9.34 12 8.68 12 8 12 C6.5625 10.13671875 6.5625 10.13671875 5 7.6875 C4.484375 6.88699219 3.96875 6.08648437 3.4375 5.26171875 C2.963125 4.51535156 2.48875 3.76898438 2 3 C1.34 2.01 0.68 1.02 0 0 Z " fill="#23302A" transform="translate(373,125)"/>
<path d="M0 0 C4.9841289 4.18436495 9.70917483 8.52661933 14.3125 13.125 C14.93189453 13.73214844 15.55128906 14.33929688 16.18945312 14.96484375 C16.78306641 15.55652344 17.37667969 16.14820312 17.98828125 16.7578125 C18.51977783 17.2852002 19.05127441 17.81258789 19.59887695 18.35595703 C21.10975212 20.12878041 22.04418606 21.88369858 23 24 C18.34875015 22.61719599 18.34875015 22.61719599 16.8125 19.8984375 C14.2297975 15.76833996 10.808051 12.6774982 7.3125 9.3125 C5.92909812 7.97991178 4.54994464 6.64289418 3.17578125 5.30078125 C2.56645752 4.71466064 1.95713379 4.12854004 1.3293457 3.5246582 C0 2 0 2 0 0 Z " fill="#21322A" transform="translate(350,99)"/>
<path d="M0 0 C0.33 0.66 0.66 1.32 1 2 C-0.56101519 4.35516272 -2.12376949 6.70914104 -3.6875 9.0625 C-4.12255859 9.71927734 -4.55761719 10.37605469 -5.00585938 11.05273438 C-7.91899135 15.43322171 -10.92128268 19.73417366 -14 24 C-14.66 23.67 -15.32 23.34 -16 23 C-5.62642369 7.25512528 -5.62642369 7.25512528 0 0 Z " fill="#202C26" transform="translate(392,348)"/>
<path d="M0 0 C1.53445094 3.06890187 0.54984289 5.70094266 0 9 C-0.66 9 -1.32 9 -2 9 C-1.979375 10.175625 -1.95875 11.35125 -1.9375 12.5625 C-1.93052739 16.47413467 -2.35749657 20.14497944 -3 24 C-3.33 24 -3.66 24 -4 24 C-4.3837341 15.85630955 -3.79121363 8.70837755 -1 1 C-0.67 0.67 -0.34 0.34 0 0 Z " fill="#AAAAAA" transform="translate(201,211)"/>
<path d="M0 0 C0.66 0.33 1.32 0.66 2 1 C-1.66666667 4.66666667 -5.33333333 8.33333333 -9 12 C-9.99 11.67 -10.98 11.34 -12 11 C-8.68542782 6.30435607 -4.63720719 3.27530896 0 0 Z " fill="#505050" transform="translate(224,178)"/>
<path d="M0 0 C3.3 0.33 6.6 0.66 10 1 C10 1.66 10 2.32 10 3 C10.63808594 3.04898438 11.27617187 3.09796875 11.93359375 3.1484375 C12.75988281 3.22320312 13.58617187 3.29796875 14.4375 3.375 C15.26121094 3.44460937 16.08492188 3.51421875 16.93359375 3.5859375 C17.61550781 3.72257813 18.29742187 3.85921875 19 4 C19.33 4.66 19.66 5.32 20 6 C15.71 5.34 11.42 4.68 7 4 C7 3.34 7 2.68 7 2 C4.69 2 2.38 2 0 2 C0 1.34 0 0.68 0 0 Z " fill="#A9A9A9" transform="translate(286,132)"/>
<path d="M0 0 C0.66 0 1.32 0 2 0 C1.86722656 0.85722656 1.73445312 1.71445313 1.59765625 2.59765625 C0.70230552 8.39456209 -0.18938564 14.19059708 -1 20 C-1.33 20 -1.66 20 -2 20 C-2.02686553 18.02090602 -2.04633375 16.04171029 -2.0625 14.0625 C-2.07410156 12.96035156 -2.08570313 11.85820312 -2.09765625 10.72265625 C-2 8 -2 8 -1 7 C-0.63239269 4.67182036 -0.29758419 2.3381615 0 0 Z " fill="#4B4B4B" transform="translate(152,207)"/>
<path d="M0 0 C0.66 0 1.32 0 2 0 C1.54636829 1.58468677 1.08688548 3.16769924 0.625 4.75 C0.36976563 5.63171875 0.11453125 6.5134375 -0.1484375 7.421875 C-0.9209934 9.76080572 -1.83625676 11.83442562 -3 14 C-3.66 13.67 -4.32 13.34 -5 13 C-3.35 8.71 -1.7 4.42 0 0 Z " fill="#2B3631" transform="translate(407,312)"/>
<path d="M0 0 C0.66 0 1.32 0 2 0 C1.67 4.29 1.34 8.58 1 13 C0.34 13 -0.32 13 -1 13 C-1.02686553 11.02090602 -1.04633375 9.04171029 -1.0625 7.0625 C-1.07410156 5.96035156 -1.08570313 4.85820312 -1.09765625 3.72265625 C-1 1 -1 1 0 0 Z " fill="#151917" transform="translate(417,256)"/>
<path d="M0 0 C0.66 0 1.32 0 2 0 C2.33 3.63 2.66 7.26 3 11 C2.34 11 1.68 11 1 11 C-0.20272819 8.59454362 -0.10071472 7.05003047 -0.0625 4.375 C-0.05347656 3.55773437 -0.04445313 2.74046875 -0.03515625 1.8984375 C-0.02355469 1.27195313 -0.01195312 0.64546875 0 0 Z " fill="#141C18" transform="translate(416,232)"/>
<path d="M0 0 C3.69496329 1.23165443 4.35395945 2.88224921 6.1484375 6.2109375 C7.05420937 8.1138894 7.66653644 9.91585276 8 12 C7.01 11.34 6.02 10.68 5 10 C5 9.01 5 8.02 5 7 C4.34 7 3.68 7 3 7 C2.01 4.69 1.02 2.38 0 0 Z " fill="#2F3633" transform="translate(386,143)"/>
<path d="M0 0 C3.44428265 1.44781793 5.36130962 3.27694609 7.75 6.125 C8.36359375 6.84945312 8.9771875 7.57390625 9.609375 8.3203125 C10.29773438 9.15175781 10.29773438 9.15175781 11 10 C8 10 8 10 6 9 C4.97388051 7.34928604 3.97691857 5.68029994 3 4 C2.01755155 2.65368175 1.02323436 1.31558703 0 0 Z " fill="#2B3C34" transform="translate(362,112)"/>
<path d="M0 0 C2.56864728 1.28432364 2.946539 2.36634751 4 5 C4 6.32 4 7.64 4 9 C2.35 9.66 0.7 10.32 -1 11 C-0.67 10.34 -0.34 9.68 0 9 C0.06950541 7.45976004 0.08452357 5.91665012 0.0625 4.375 C0.05347656 3.55773437 0.04445313 2.74046875 0.03515625 1.8984375 C0.02355469 1.27195313 0.01195312 0.64546875 0 0 Z " fill="#A0A0A0" transform="translate(346,175)"/>
<path d="M0 0 C-1.57725347 0.70133599 -3.16211333 1.385583 -4.75 2.0625 C-5.63171875 2.44535156 -6.5134375 2.82820312 -7.421875 3.22265625 C-10.15256309 4.04600008 -11.36901347 3.9773992 -14 3 C-12.35 2.67 -10.7 2.34 -9 2 C-9 1.34 -9 0.68 -9 0 C-5.5657338 -0.85856655 -3.38317487 -0.97591583 0 0 Z " fill="#8F8F8F" transform="translate(245,171)"/>
<path d="M0 0 C-1.6210103 0.69685498 -3.24696066 1.38222861 -4.875 2.0625 C-5.77992188 2.44535156 -6.68484375 2.82820312 -7.6171875 3.22265625 C-10 4 -10 4 -12 3 C-11.01 2.67 -10.02 2.34 -9 2 C-9 1.34 -9 0.68 -9 0 C-5.5657338 -0.85856655 -3.38317487 -0.97591583 0 0 Z " fill="#5C5C5C" transform="translate(225,134)"/>
<path d="M0 0 C0.33 0.66 0.66 1.32 1 2 C-2.44615385 6.8 -2.44615385 6.8 -5.25 7.8125 C-6.11625 7.9053125 -6.11625 7.9053125 -7 8 C-7 7.34 -7 6.68 -7 6 C-5.46875 4.4921875 -5.46875 4.4921875 -3.5 2.875 C-2.8503125 2.33617187 -2.200625 1.79734375 -1.53125 1.2421875 C-1.0259375 0.83226562 -0.520625 0.42234375 0 0 Z " fill="#4D4D4D" transform="translate(331,343)"/>
<path d="M0 0 C1.32 0.33 2.64 0.66 4 1 C3.4140625 7.15234375 3.4140625 7.15234375 3 9 C2.01 9.495 2.01 9.495 1 10 C1.020625 8.906875 1.04125 7.81375 1.0625 6.6875 C1.18544452 3.05615809 1.18544452 3.05615809 0 0 Z " fill="#888888" transform="translate(349,302)"/>
</svg>
